Coordinates
version=1
nRows=39
nColumns=6
inDegrees=yes

Units are S.I. units (second, meters, Newtons, ...)
If the header above contains a line with 'inDegrees', this indicates whether rotational values are in degrees (yes) or radians (no).

endheader
time	foot_tx	hip_flexion_r	knee_angle_r	ankle_angle_r	lumbar
     84.80000000	      0.19291922	     52.38043949	    -72.63152218	      4.11494657	    -27.29819654
     84.81000000	      0.19292320	     52.41810334	    -72.62551024	      4.10655552	    -27.32768720
     84.82000000	      0.19292022	     52.45939576	    -72.62050506	      4.09983903	    -27.35810830
     84.83000000	      0.19290627	     52.50269672	    -72.61602221	      4.09513586	    -27.39149045
     84.84000000	      0.19288298	     52.54655080	    -72.61254945	      4.09281727	    -27.42933401
     84.85000000	      0.19285159	     52.59154241	    -72.60960867	      4.09234879	    -27.47183875
     84.86000000	      0.19281105	     52.63739810	    -72.60490830	      4.09258505	    -27.52083293
     84.87000000	      0.19276398	     52.68483640	    -72.60128917	      4.09480330	    -27.57429355
     84.88000000	      0.19270397	     52.71779479	    -72.59479299	      4.09852608	    -27.65289309
     84.89000000	      0.19261573	     52.77756917	    -72.59604363	      4.10718425	    -27.70922850
     84.90000000	      0.19255231	     52.83995447	    -72.58938998	      4.11067809	    -27.77202129
     84.91000000	      0.19247270	     52.90752287	    -72.58429666	      4.11697064	    -27.83814004
     84.92000000	      0.19239057	     52.98106934	    -72.57844672	      4.12385348	    -27.90684959
     84.93000000	      0.19231013	     53.06100873	    -72.57143624	      4.13097432	    -27.97774200
     84.94000000	      0.19223363	     53.14915733	    -72.56229529	      4.13749399	    -28.05011155
     84.95000000	      0.19215476	     53.27415890	    -72.55600480	      4.14403149	    -28.09201163
     84.96000000	      0.19208047	     53.37308184	    -72.54612254	      4.15252161	    -28.17194283
     84.97000000	      0.19200533	     53.51718167	    -72.54003682	      4.16082225	    -28.21288000
     84.98000000	      0.19193231	     53.65257309	    -72.53130111	      4.16985736	    -28.27492625
     84.99000000	      0.19185074	     53.79563713	    -72.52506541	      4.18162757	    -28.33989654
     85.00000000	      0.19177509	     53.94697875	    -72.51782515	      4.19330926	    -28.40814371
     85.01000000	      0.19170050	     54.10638575	    -72.51047511	      4.20557272	    -28.48077626
     85.02000000	      0.19162956	     54.27326862	    -72.50275548	      4.21822483	    -28.55877354
     85.03000000	      0.19156422	     54.44741207	    -72.49435592	      4.23103774	    -28.64271026
     85.04000000	      0.19151460	     54.59958802	    -72.48133542	      4.24398564	    -28.76412393
     85.05000000	      0.19145476	     54.81723211	    -72.47476255	      4.25668773	    -28.82968851
     85.06000000	      0.19141105	     55.01342457	    -72.46313001	      4.26922760	    -28.93304252
     85.07000000	      0.19137612	     55.21671945	    -72.45032214	      4.28163335	    -29.04355288
     85.08000000	      0.19134729	     55.42918869	    -72.43574912	      4.29334309	    -29.16026048
     85.09000000	      0.19132399	     55.65092265	    -72.41964722	      4.30447496	    -29.28343011
     85.10000000	      0.19130818	     55.85099210	    -72.39818822	      4.31555672	    -29.44776078
     85.11000000	      0.19128912	     56.12420362	    -72.38316494	      4.32525863	    -29.54906554
     85.12000000	      0.19127309	     56.34207169	    -72.36009687	      4.33703889	    -29.72905500
     85.13000000	      0.19125074	     56.63542277	    -72.34394756	      4.34801499	    -29.84353820
     85.14000000	      0.19122457	     56.90255038	    -72.32466876	      4.36205150	    -30.00383858
     85.15000000	      0.19119552	     57.17675009	    -72.30491812	      4.37772640	    -30.17308155
     85.16000000	      0.19116397	     57.42743428	    -72.28175947	      4.39646728	    -30.38440867
     85.17000000	      0.19112507	     57.74110222	    -72.26522630	      4.41640517	    -30.54140309
     85.18000000	      0.19109109	     58.00525261	    -72.24146459	      4.43974400	    -30.76821754
